<svg width="16" height="16" viewBox="0 0 16 16" fill="none" xmlns="http://www.w3.org/2000/svg">
<path fill-rule="evenodd" clip-rule="evenodd" d="M3.86283 1C2.81355 1 1.94267 1.81089 1.86791 2.85751L1.15362 12.8575C1.07093 14.0152 1.98786 15 3.14854 15H12.8526C14.0133 15 14.9302 14.0152 14.8475 12.8575L14.1333 2.85751C14.0585 1.8109 13.1876 1 12.1383 1H3.86283ZM8.00059 6.8C9.54698 6.8 10.8006 5.5464 10.8006 4H12.0006C12.0006 6.20914 10.2097 8 8.00059 8C5.79145 8 4.00059 6.20914 4.00059 4H5.20059C5.20059 5.5464 6.45419 6.8 8.00059 6.8Z" fill="#060606"/>
</svg>
