<svg width="16" height="16" viewBox="0 0 16 16" fill="none" xmlns="http://www.w3.org/2000/svg">
<path d="M12.139 1C13.188 1.00016 14.0584 1.81094 14.1331 2.85742L14.848 12.8574C14.9308 14.0152 14.0136 15 12.8528 15H3.14874C1.98808 15 1.07093 14.0151 1.15362 12.8574L1.86847 2.85742C1.94327 1.81086 2.81434 1 3.86358 1H12.139ZM3.86358 2C3.33895 2 2.90293 2.40542 2.86554 2.92871L2.15167 12.9287C2.11032 13.5076 2.56845 14 3.14874 14H12.8528C13.4333 14 13.8913 13.5075 13.8499 12.9287L13.136 2.92871C13.0987 2.40555 12.6634 2.00016 12.139 2H3.86358Z" fill="#060606"/>
<path fill-rule="evenodd" clip-rule="evenodd" d="M11 4C11 5.65685 9.65685 7 8 7C6.34315 7 5 5.65685 5 4H4C4 6.20914 5.79086 8 8 8C10.2091 8 12 6.20914 12 4H11Z" fill="#060606"/>
</svg>
