<svg width="16" height="16" viewBox="0 0 16 16" fill="none" xmlns="http://www.w3.org/2000/svg">
<path d="M6.26562 1.59375C7.22282 0.63667 8.77523 0.63667 9.73242 1.59375L15.1562 7.01855L15.3145 7.17578L15.1562 7.33301L14.3691 8.12109L14.2109 7.96387L13.5713 7.32324V11.502C13.5711 12.8555 12.4736 13.953 11.1201 13.9531H4.88086C3.52726 13.9531 2.42988 12.8555 2.42969 11.502V7.32031L1.78711 7.96387L1.62891 8.12109L0.841797 7.33301L0.683594 7.17578L0.841797 7.01855L6.26562 1.59375ZM8.78711 2.53906C8.35204 2.10411 7.646 2.10411 7.21094 2.53906L3.7666 5.9834V11.502C3.7668 12.1171 4.26564 12.6162 4.88086 12.6162H11.1201C11.7352 12.6161 12.2342 12.1171 12.2344 11.502V5.98633L8.78711 2.53906Z" fill="black"/>
</svg>
