<svg width="48" height="48" viewBox="0 0 48 48" fill="none" xmlns="http://www.w3.org/2000/svg">
<path d="M23.8462 40.9037C21.2382 40.9037 18.9328 40.5458 16.93 39.8298C14.9272 39.1225 13.2439 38.0784 11.8803 36.6977C10.5166 35.3171 9.48544 33.6253 8.78657 31.6225C8.08771 29.6196 7.73828 27.327 7.73828 24.7446C7.73828 22.2475 8.09197 20.0145 8.79936 18.0458C9.51527 16.077 10.5507 14.4065 11.9058 13.0344C13.2695 11.6537 14.9229 10.6012 16.8661 9.87669C18.8178 9.15226 21.0252 8.79004 23.4882 8.79004C25.8831 8.79004 27.9797 9.18209 29.778 9.96618C31.5848 10.7418 33.0934 11.7943 34.3036 13.1239C35.5223 14.4449 36.4343 15.9321 37.0394 17.5855C37.653 19.2389 37.9598 20.9435 37.9598 22.6992C37.9598 23.935 37.9002 25.1878 37.7808 26.4577C37.6615 27.7276 37.4101 28.8952 37.0266 29.9605C36.6431 31.0173 36.0507 31.8696 35.2496 32.5173C34.457 33.1651 33.3831 33.4889 32.028 33.4889C31.4314 33.4889 30.7752 33.3952 30.0593 33.2077C29.3434 33.0202 28.7084 32.7091 28.1544 32.2744C27.6005 31.8398 27.2723 31.256 27.1701 30.523H27.0166C26.8121 31.0173 26.4968 31.4861 26.0706 31.9293C25.653 32.3725 25.1033 32.7262 24.4215 32.9904C23.7482 33.2546 22.9257 33.3696 21.9541 33.3355C20.8462 33.2929 19.8703 33.0458 19.0266 32.5941C18.1828 32.1338 17.4755 31.5117 16.9044 30.7276C16.3419 29.935 15.9158 29.0188 15.626 27.979C15.3448 26.9307 15.2041 25.8014 15.2041 24.5912C15.2041 23.4406 15.3746 22.3881 15.7155 21.4335C16.0564 20.479 16.5294 19.6438 17.1345 18.9279C17.7482 18.2119 18.4641 17.6409 19.2823 17.2148C20.109 16.7801 20.9996 16.5117 21.9541 16.4094C22.8064 16.3242 23.582 16.3625 24.2808 16.5244C24.9797 16.6779 25.555 16.9122 26.0067 17.2276C26.4584 17.5344 26.7439 17.8753 26.8632 18.2503H27.0166V16.8185H29.7269V28.3753C29.7269 29.0912 29.9272 29.7219 30.3277 30.2673C30.7283 30.8128 31.3121 31.0855 32.0791 31.0855C32.9485 31.0855 33.6132 30.7872 34.0735 30.1906C34.5422 29.594 34.8618 28.6736 35.0323 27.4293C35.2112 26.185 35.3007 24.5912 35.3007 22.648C35.3007 21.506 35.1431 20.381 34.8277 19.273C34.5209 18.1565 34.0522 17.1125 33.4215 16.1409C32.7993 15.1693 32.011 14.3128 31.0564 13.5713C30.1019 12.8298 28.9811 12.2503 27.6942 11.8327C26.4158 11.4065 24.9627 11.1935 23.3348 11.1935C21.332 11.1935 19.538 11.5046 17.9527 12.1267C16.376 12.7404 15.0337 13.6395 13.9257 14.8242C12.8263 16.0003 11.9868 17.4321 11.4073 19.1196C10.8362 20.7986 10.5507 22.7077 10.5507 24.8469C10.5507 27.0202 10.8362 28.9506 11.4073 30.6381C11.9868 32.3256 12.8391 33.7489 13.9641 34.908C15.0976 36.0671 16.4996 36.9449 18.1701 37.5415C19.8405 38.1466 21.7666 38.4492 23.9485 38.4492C24.886 38.4492 25.8107 38.3597 26.7226 38.1807C27.6345 38.0017 28.4399 37.8057 29.1388 37.5926C29.8377 37.3796 30.3405 37.2219 30.6473 37.1196L31.3632 39.4719C30.8348 39.6935 30.1445 39.9151 29.2922 40.1367C28.4485 40.3583 27.5451 40.5415 26.582 40.6864C25.6274 40.8313 24.7155 40.9037 23.8462 40.9037ZM22.3632 30.7276C23.5053 30.7276 24.43 30.4975 25.1374 30.0372C25.8448 29.577 26.3604 28.8824 26.6843 27.9534C27.0081 27.0244 27.1701 25.8526 27.1701 24.4378C27.1701 23.006 26.9911 21.8895 26.6331 21.0884C26.2752 20.2872 25.7468 19.7247 25.0479 19.4009C24.349 19.077 23.4882 18.9151 22.4655 18.9151C21.4939 18.9151 20.663 19.1708 19.9726 19.6821C19.2908 20.185 18.7666 20.8583 18.4002 21.702C18.0422 22.5372 17.8632 23.4492 17.8632 24.4378C17.8632 25.5287 18.0081 26.5557 18.2979 27.5188C18.5877 28.4733 19.0607 29.2489 19.7169 29.8455C20.3732 30.4335 21.2553 30.7276 22.3632 30.7276Z" fill="black"/>
</svg>
