<svg width="16" height="16" viewBox="0 0 16 16" fill="none" xmlns="http://www.w3.org/2000/svg">
<path fill-rule="evenodd" clip-rule="evenodd" d="M8 0.75C10.4853 0.75 12.5 2.76472 12.5 5.25C12.5 6.91723 11.5923 8.37092 10.2451 9.14844C12.7286 10.0625 14.5 12.4493 14.5 15.25H13.5C13.5 12.2124 11.0376 9.75 8 9.75C4.96243 9.75 2.5 12.2124 2.5 15.25H1.5C1.5 12.4496 3.27089 10.0628 5.75391 9.14844C4.40713 8.37081 3.5 6.91693 3.5 5.25C3.5 2.76472 5.51472 0.75 8 0.75ZM8 1.75C6.067 1.75 4.5 3.317 4.5 5.25C4.5 7.183 6.067 8.75 8 8.75C9.933 8.75 11.5 7.183 11.5 5.25C11.5 3.317 9.933 1.75 8 1.75Z" fill="#060606"/>
</svg>
