<svg width="48" height="48" viewBox="0 0 48 48" fill="none" xmlns="http://www.w3.org/2000/svg">
<path d="M32 7C36.8799 7 41.2768 11.0784 39.9814 16.167L39.9805 16.168C38.509 21.9065 35.523 27.1449 31.334 31.334C27.1449 35.523 21.9065 38.509 16.168 39.9805L16.167 39.9814C11.0784 41.2768 7 36.8799 7 32V30C7 28.3219 8.34984 27.0602 9.89648 26.9053C11.6261 26.7333 13.3248 26.324 14.9434 25.6904C15.3133 25.5456 15.7337 25.6342 16.0146 25.915L18.5439 28.4443C22.7892 26.248 26.248 22.7892 28.4443 18.5439L25.915 16.0146C25.6341 15.7336 25.5464 15.3134 25.6914 14.9434C26.3257 13.3248 26.7347 11.6263 26.9072 9.89648C27.0603 8.34597 28.3234 7 30 7H32ZM9 32C9 35.9596 12.197 38.9265 15.6719 38.043L16.1758 37.9092C21.3696 36.484 26.1073 33.7325 29.9199 29.9199C33.8555 25.9844 36.6605 21.0631 38.043 15.6719C38.9265 12.197 35.9596 9 32 9H30C29.4692 9 28.9612 9.44504 28.8975 10.0938V10.0957C28.7286 11.7886 28.3533 13.4535 27.7832 15.0547L30.3691 17.6406C30.6692 17.9407 30.7469 18.3976 30.5635 18.7803C28.0922 23.9353 23.9353 28.0922 18.7803 30.5635C18.3976 30.7469 17.9407 30.6692 17.6406 30.3691L15.0537 27.7822C13.4524 28.3517 11.7876 28.7272 10.0947 28.8955C9.44591 28.961 9 29.4704 9 30V32Z" fill="black"/>
</svg>
