<svg width="16" height="16" viewBox="0 0 16 16" fill="none" xmlns="http://www.w3.org/2000/svg">
<path d="M10.25 6V12H9.25V6H10.25Z" fill="#060606"/>
<path d="M6.75 6V12H5.75V6H6.75Z" fill="#060606"/>
<path d="M15 3V4H1V3H15Z" fill="#060606"/>
<path d="M9.36621 0.5C10.2443 0.5 11.059 0.960814 11.5107 1.71387L12.4277 3.24316L11.5703 3.75684L10.6533 2.22852C10.3823 1.77675 9.89308 1.5 9.36621 1.5H6.63184C6.10495 1.5 5.61582 1.77671 5.34473 2.22852L4.42773 3.75684L3.57031 3.24316L4.4873 1.71387C4.93912 0.960857 5.75368 0.5 6.63184 0.5H9.36621Z" fill="#060606"/>
<path d="M14 3L13.9541 3.54199L13.1523 13.166C13.0659 14.2026 12.1994 15 11.1592 15H4.83984C3.79967 15 2.93305 14.2026 2.84668 13.166L2 3H14ZM3.84375 13.083C3.88693 13.6013 4.31974 14 4.83984 14H11.1592C11.6794 14 12.1131 13.6013 12.1562 13.083L12.9131 4H3.08594L3.84375 13.083Z" fill="#060606"/>
</svg>
