<svg width="24" height="24" viewBox="0 0 24 24" fill="none" xmlns="http://www.w3.org/2000/svg">
<g clip-path="url(#clip0_1308_60)">
<mask id="mask0_1308_60" style="mask-type:luminance" maskUnits="userSpaceOnUse" x="0" y="0" width="24" height="24">
<path d="M24 0H0V24H24V0Z" fill="white"/>
</mask>
<g mask="url(#mask0_1308_60)">
<path d="M10.3431 2.3789C11.1565 1.16799 12.986 1.20832 13.7318 2.49999L23.6907 19.75L23.7581 19.876C24.3999 21.1857 23.4505 22.7497 21.9593 22.75H2.04035C0.500804 22.75 -0.461746 21.0833 0.307928 19.75L10.2679 2.49999L10.3431 2.3789ZM12.4329 3.24999C12.2405 2.91669 11.7592 2.91672 11.5667 3.24999L1.60773 20.5H1.60676C1.41454 20.8333 1.65553 21.25 2.04035 21.25H21.9593C22.3438 21.2497 22.5842 20.8332 22.3919 20.5L12.4329 3.24999Z" fill="#060606"/>
<path d="M12.75 7.5V15.5H11.25V7.5H12.75Z" fill="#060606"/>
<path d="M12 18.75C12.5523 18.75 13 18.3023 13 17.75C13 17.1977 12.5523 16.75 12 16.75C11.4477 16.75 11 17.1977 11 17.75C11 18.3023 11.4477 18.75 12 18.75Z" fill="#060606"/>
</g>
</g>
<defs>
<clipPath id="clip0_1308_60">
<rect width="24" height="24" fill="white"/>
</clipPath>
</defs>
</svg>
